<?xml version="1.0" standalone="no"?>
<!DOCTYPE svg PUBLIC "-//W3C//DTD SVG 20010904//EN"
 "http://www.w3.org/TR/2001/REC-SVG-20010904/DTD/svg10.dtd">
<svg version="1.0" xmlns="http://www.w3.org/2000/svg"
 width="617.000000pt" height="617.000000pt" viewBox="0 0 617.000000 617.000000"
 preserveAspectRatio="xMidYMid meet">
<metadata>
Created by potrace 1.11, written by Peter Selinger 2001-2013
</metadata>
<g transform="translate(0.000000,617.000000) scale(0.100000,-0.100000)"
fill="#000000" stroke="none">
<path d="M337 5658 c-10 -30 22 -72 113 -148 72 -59 268 -190 400 -265 47 -27
86 -49 88 -50 4 -3 -131 -219 -142 -227 -5 -3 -14 -4 -21 -2 -20 8 -65 -43
-65 -74 0 -30 29 -72 49 -72 6 0 11 -8 12 -17 1 -10 2 -29 4 -43 1 -14 6 -74
10 -135 3 -60 8 -126 10 -145 2 -19 7 -80 10 -135 3 -55 8 -115 10 -134 3 -27
-1 -38 -21 -53 -29 -23 -31 -51 -5 -75 20 -18 25 -47 36 -198 4 -44 8 -102 10
-130 2 -27 7 -81 10 -120 7 -81 11 -135 20 -260 3 -49 8 -110 10 -135 5 -51
11 -127 20 -250 3 -47 8 -103 10 -125 3 -22 7 -76 10 -120 3 -44 8 -106 10
-138 3 -31 7 -83 10 -115 2 -31 7 -86 10 -122 3 -36 8 -90 10 -120 1 -30 6
-98 10 -150 l7 -95 -107 -100 c-60 -55 -116 -107 -126 -115 -9 -9 -79 -74
-154 -145 -75 -72 -157 -140 -181 -153 -47 -24 -57 -51 -30 -81 13 -15 -3 -34
-150 -184 -90 -92 -171 -167 -179 -167 -33 0 -51 -66 -29 -102 13 -20 58 -29
86 -17 15 6 28 12 28 13 1 0 3 19 6 41 4 21 9 47 13 56 5 15 314 341 454 480
l49 48 74 -55 c41 -29 108 -79 150 -110 l76 -55 -49 -31 c-26 -17 -78 -50
-115 -74 -37 -24 -74 -44 -82 -44 -36 0 -40 -64 -5 -75 31 -10 57 4 64 33 4
21 29 42 114 95 110 68 134 74 146 36 8 -25 62 -27 67 -2 2 12 29 -18 78 -86
41 -57 96 -132 122 -166 25 -35 44 -66 41 -68 -3 -3 -2 -14 1 -25 8 -23 63
-29 68 -7 2 8 86 75 188 149 l185 135 107 -107 107 -107 -120 -121 c-99 -99
-129 -124 -167 -135 -33 -10 -51 -23 -60 -41 -26 -54 28 -113 85 -92 18 6 31
23 44 59 15 39 44 75 137 168 103 103 121 117 133 104 8 -8 64 -66 126 -129
93 -95 113 -121 118 -154 11 -66 16 -75 42 -85 53 -20 93 10 93 69 0 25 -8 35
-43 55 -23 14 -51 35 -62 47 -11 12 9 2 45 -22 124 -86 247 -142 390 -177 119
-29 148 -33 288 -35 334 -6 633 115 870 351 51 51 95 93 97 93 2 0 81 -79 177
-175 144 -145 177 -183 192 -224 14 -41 23 -51 47 -56 57 -13 102 40 80 94 -9
20 -23 30 -58 39 -41 11 -69 35 -228 194 l-181 182 38 64 c22 35 53 98 70 140
17 43 47 95 67 117 82 90 133 173 202 330 11 27 37 130 45 185 11 71 8 239 -5
302 -7 32 -12 59 -11 60 4 6 -53 147 -81 203 -39 76 -103 165 -168 234 -28 30
-51 56 -51 58 0 2 15 2 33 -1 85 -14 145 -17 307 -17 96 0 195 2 220 5 25 3
65 8 90 11 93 12 167 25 215 40 27 8 53 11 56 7 4 -4 10 -47 13 -97 4 -49 9
-103 11 -120 5 -42 13 -117 20 -205 4 -41 8 -89 10 -106 4 -26 13 -133 19
-219 1 -15 -31 -41 -134 -109 -383 -252 -532 -346 -545 -346 -25 0 -39 -29
-27 -55 18 -38 58 -34 78 9 21 44 291 217 305 195 4 -8 16 -25 26 -38 147
-195 243 -339 243 -363 0 -25 3 -28 35 -28 23 0 35 5 35 14 0 8 19 28 43 45
23 16 58 41 77 55 82 59 217 157 235 171 19 15 25 11 130 -99 61 -63 173 -180
250 -260 131 -137 140 -149 150 -198 8 -43 15 -55 37 -66 38 -18 74 -6 88 29
17 40 6 74 -29 89 -16 6 -100 84 -187 172 -157 160 -157 160 -142 187 20 36
13 54 -30 73 -20 9 -55 34 -78 55 -68 64 -345 322 -455 424 -34 32 -38 40 -35
75 3 21 7 80 11 129 3 50 8 106 10 125 2 19 6 78 10 130 3 52 8 111 10 130 2
19 6 76 10 125 3 50 8 108 10 130 2 22 7 78 10 125 3 47 8 105 10 130 4 50 13
153 20 245 2 33 7 96 10 140 4 44 8 100 11 125 2 25 6 81 9 125 3 44 7 100 10
125 2 25 7 87 11 138 4 73 10 98 25 113 27 27 25 67 -6 81 -13 6 -23 14 -21
17 2 3 7 51 10 106 4 55 9 123 11 150 3 28 7 82 9 120 19 266 16 248 49 276
53 45 34 119 -34 134 -16 4 -36 16 -43 28 -7 12 -36 59 -64 105 -29 45 -52 86
-52 90 0 4 42 31 93 61 179 105 363 230 445 305 34 31 65 85 58 101 -8 21 -67
19 -156 -5 -41 -11 -82 -23 -90 -26 -8 -3 -16 -5 -17 -5 -2 0 -51 -21 -110
-46 -114 -48 -201 -70 -294 -76 -30 -2 -61 -7 -69 -12 -9 -6 -20 0 -35 19 -51
64 -135 44 -135 -33 0 -20 5 -42 10 -47 7 -7 -3 -21 -30 -43 -22 -17 -40 -37
-40 -44 0 -23 -124 -134 -225 -202 -55 -37 -121 -85 -147 -107 l-48 -40 -31
26 c-26 22 -40 26 -94 26 -315 0 -915 -491 -915 -750 0 -31 7 -47 35 -77 19
-21 48 -57 65 -80 l30 -41 -68 -68 -67 -67 -1 -66 c0 -36 -4 -81 -8 -99 l-8
-34 -51 7 c-29 4 -57 13 -63 21 -6 8 -11 50 -11 93 l-1 79 -67 66 -68 66 29
41 c15 22 43 57 61 77 18 20 34 38 34 41 22 97 -52 241 -203 394 -175 176
-385 314 -578 377 -107 35 -225 23 -243 -24 -6 -14 -266 -366 -291 -394 -10
-10 -21 -9 -60 2 -26 8 -55 21 -64 29 -10 9 -33 19 -52 24 -31 8 -36 14 -41
48 -10 62 -51 84 -110 60 -19 -7 -42 -52 -34 -65 7 -12 -5 -18 -46 -25 -19 -3
-53 -15 -76 -25 -24 -11 -52 -20 -62 -20 -11 0 -32 -5 -48 -11 -15 -6 -79 -13
-142 -15 -132 -4 -258 -20 -313 -39 -27 -9 -38 -9 -39 -1 0 6 -2 19 -4 30 -2
10 -6 67 -10 126 -5 90 -4 109 9 120 10 7 16 28 16 51 0 31 15 63 71 154 l70
114 100 -50 c298 -149 539 -239 640 -239 21 0 41 5 44 11 23 36 -76 133 -260
258 -106 71 -171 129 -220 196 -30 40 -38 48 -63 64 -11 6 -12 15 -1 50 12 40
11 43 -13 68 -36 35 -75 34 -109 -5 -26 -29 -31 -30 -59 -21 -16 6 -36 9 -43
6 -12 -4 -64 3 -162 23 -22 4 -89 29 -150 55 -191 81 -354 117 -368 83z m4910
-618 c46 -74 71 -124 67 -134 -7 -19 14 -76 28 -76 5 0 7 -17 4 -37 -3 -21 -8
-78 -11 -128 -3 -49 -7 -115 -10 -145 -2 -30 -7 -93 -10 -140 -12 -176 -17
-204 -36 -228 -24 -31 -24 -47 1 -70 16 -14 19 -27 15 -67 -5 -61 -14 -177
-20 -265 -3 -36 -7 -87 -10 -115 -3 -27 -7 -86 -10 -130 -3 -44 -8 -105 -10
-135 -19 -223 -30 -364 -40 -510 -4 -47 -8 -101 -10 -120 -2 -19 -6 -78 -10
-130 -5 -52 -9 -106 -10 -120 -2 -14 -3 -47 -4 -74 -1 -66 -9 -55 -16 24 -3
36 -8 83 -10 105 -6 53 -17 171 -20 215 -2 22 4 42 15 55 25 30 31 53 16 68
-11 11 -14 112 -14 528 0 283 4 519 8 524 21 29 18 47 -12 81 -38 43 -92 72
-175 94 l-62 16 20 44 c11 24 22 63 25 85 7 51 -7 73 -227 362 -151 199 -216
289 -195 271 18 -15 313 103 526 211 63 32 117 59 120 59 3 1 38 -52 77 -118z
m-4328 -635 c74 -53 202 -109 341 -150 116 -34 150 -46 208 -79 35 -20 35 -23
-5 -24 -81 -3 -245 -35 -314 -62 -97 -36 -163 -112 -128 -147 15 -15 16 -1040
0 -1056 -17 -17 -13 -41 10 -66 19 -21 21 -30 14 -99 -3 -43 -8 -95 -10 -117
-9 -104 -17 -170 -21 -174 -9 -9 -12 8 -19 99 -3 52 -8 115 -10 140 -2 25 -7
81 -10 125 -3 44 -8 103 -10 130 -5 48 -7 81 -20 255 -3 41 -8 91 -10 110 -2
19 -6 82 -10 140 -4 58 -8 116 -10 130 -2 14 -6 68 -10 120 -3 52 -8 111 -10
130 -2 19 -7 76 -10 126 -4 50 -8 100 -9 110 -2 10 5 25 15 32 25 17 24 63 -1
85 -15 13 -20 30 -21 74 -1 66 -6 135 -14 176 -6 36 5 34 64 -8z m2216 -455
c53 -54 59 -64 60 -105 1 -25 -3 -49 -9 -54 -12 -10 -296 -20 -296 -11 0 3 10
16 23 30 12 14 51 64 87 113 35 48 67 87 70 87 3 0 32 -27 65 -60z m568 -74
l97 -129 0 -412 0 -412 -60 20 -60 20 32 24 c41 29 52 57 33 77 -21 21 -21
472 -1 499 8 10 12 27 9 38 -10 35 -102 95 -185 121 -57 17 -78 28 -78 40 0 9
-4 20 -10 23 -5 3 -10 29 -10 57 0 49 2 54 58 109 31 32 62 57 67 55 6 -1 54
-60 108 -130z m-1313 -561 c0 -134 -3 -246 -8 -249 -4 -2 -7 110 -7 249 0 139
3 251 8 248 4 -2 7 -114 7 -248z m0 -305 c0 -26 175 -87 300 -105 25 -3 54 -8
65 -10 11 -2 34 -4 50 -4 27 -1 24 -4 -35 -37 -76 -43 -199 -137 -290 -224
-36 -34 -103 -96 -149 -138 -217 -198 -300 -308 -375 -496 -93 -235 -90 -549
9 -773 14 -31 24 -57 23 -59 -2 -1 -30 23 -64 54 -33 31 -113 107 -178 167
-66 61 -160 150 -210 199 -89 86 -90 88 -41 60 103 -56 163 -103 173 -134 18
-51 88 -34 80 21 -2 14 -16 27 -43 38 -22 9 -86 47 -143 84 l-103 67 5 58 c6
71 14 163 21 267 3 44 8 98 10 120 2 22 7 81 10 130 3 50 8 106 10 125 2 19 7
78 11 130 11 163 0 145 90 146 252 5 308 8 399 19 131 17 228 40 292 69 53 25
90 66 78 87 -11 17 -14 149 -4 149 5 0 9 -4 9 -10z m-1215 -255 c53 -17 77
-22 140 -30 22 -3 49 -8 60 -10 11 -2 37 -4 59 -4 l38 -1 -6 -97 c-4 -54 -9
-114 -11 -133 -3 -35 -12 -149 -20 -270 -3 -36 -7 -87 -10 -115 -3 -27 -7 -84
-10 -125 -7 -100 -16 -204 -18 -206 -1 -1 -82 50 -180 114 l-179 116 6 80 c7
81 12 135 21 211 2 22 7 76 10 120 3 44 8 91 10 105 2 14 7 59 11 100 3 41 8
86 9 100 2 14 3 33 4 43 1 21 3 21 66 2z m-155 -355 c0 -11 -2 -20 -4 -20 -2
0 -6 9 -9 20 -3 11 -1 20 4 20 5 0 9 -9 9 -20z m298 -645 c4 -3 -207 -293
-219 -301 -16 -9 -18 -4 -24 81 -3 44 -8 96 -10 115 -2 19 -7 80 -11 135 -3
55 -7 109 -9 121 -2 18 20 7 134 -64 75 -46 137 -85 139 -87z m-334 105 c3
-30 8 -93 11 -140 3 -47 7 -105 10 -130 16 -168 17 -190 6 -190 -7 0 -81 51
-166 113 l-154 112 74 75 c41 41 105 107 142 147 37 40 68 71 69 70 1 -1 4
-27 8 -57z m4141 -17 c-4 -43 -8 -94 -10 -113 -2 -19 -6 -80 -10 -135 -7 -103
-13 -157 -20 -163 -2 -2 -9 6 -15 18 -6 12 -55 81 -107 153 -53 72 -96 137
-97 144 -1 12 237 171 257 172 5 1 6 -34 2 -76z m201 -57 c65 -68 127 -132
137 -144 18 -20 16 -22 -142 -136 -89 -64 -163 -116 -165 -116 -3 0 -3 10 -1
23 2 12 6 63 9 112 6 85 16 215 21 260 1 11 3 44 4 73 0 28 5 52 9 52 5 0 62
-56 128 -124z m-3935 -111 c-5 -28 -17 -41 -69 -75 -70 -44 -70 -45 0 52 53
73 79 81 69 23z m-16 -212 c-4 -60 -9 -124 -10 -143 -2 -19 -7 -75 -10 -125
-4 -49 -10 -94 -15 -98 -5 -6 -166 206 -204 270 -13 22 25 70 88 109 33 22 78
51 100 66 23 14 45 27 49 27 5 1 6 -47 2 -106z m177 0 c57 -58 120 -123 142
-144 21 -20 36 -42 32 -47 -3 -5 -61 -49 -128 -98 -68 -48 -138 -99 -157 -113
l-34 -25 7 102 c4 56 9 114 11 129 4 35 18 227 19 271 0 17 2 32 3 32 2 0 49
-48 105 -107z"/>
</g>
</svg>
